<?xml version="1.0" standalone="no"?>
<!DOCTYPE svg PUBLIC "-//W3C//DTD SVG 20010904//EN"
 "http://www.w3.org/TR/2001/REC-SVG-20010904/DTD/svg10.dtd">
<svg version="1.0" xmlns="http://www.w3.org/2000/svg"
 width="450.000000pt" height="338.000000pt" viewBox="0 0 450.000000 338.000000"
 preserveAspectRatio="xMidYMid meet">
<metadata>
Created by potrace 1.10, written by Peter Selinger 2001-2011
</metadata>
<g transform="translate(0.000000,338.000000) scale(0.050000,-0.050000)"
fill="#2563eb" stroke="none">
<path d="M6497 6342 c-216 -78 -358 -170 -520 -337 -146 -150 -175 -165 -216
-116 -173 208 -999 380 -1093 228 -6 -10 -29 -13 -50 -6 -23 7 -38 2 -38 -12
0 -17 -8 -18 -25 -4 -94 77 -622 86 -829 14 -172 -59 -398 -179 -413 -218 -22
-57 -126 -25 -193 58 -86 109 -247 244 -360 301 -208 105 -476 167 -455 105 6
-17 -34 -33 -123 -50 -148 -27 -232 -79 -232 -142 0 -23 -26 -66 -57 -95 -35
-33 -53 -66 -47 -89 6 -21 -7 -52 -30 -73 -180 -163 -104 -651 162 -1043 98
-145 97 -114 13 -253 -38 -63 -98 -202 -133 -307 -61 -186 -132 -335 -195
-408 -49 -59 -16 -57 77 5 105 70 114 66 62 -22 -81 -139 -110 -309 -109 -628
2 -542 120 -901 464 -1413 155 -231 225 -368 209 -410 -6 -15 1 -27 14 -27 16
0 22 24 16 69 -10 90 4 78 116 -99 52 -83 102 -150 111 -150 40 0 16 215 -33
308 -27 52 -50 98 -50 103 0 64 626 -507 736 -671 l74 -110 6 76 c5 53 -9 104
-46 170 l-52 94 91 -104 c101 -114 247 -237 263 -220 6 5 -8 47 -31 91 -57
113 -54 114 63 22 57 -45 158 -110 225 -143 67 -34 159 -87 205 -119 106 -73
134 -74 117 -2 l-14 55 69 -67 c45 -43 72 -58 78 -41 6 17 55 -8 145 -72 119
-85 138 -93 154 -63 11 18 37 33 59 33 57 0 116 34 205 117 58 55 75 63 66 33
-41 -146 -42 -143 41 -133 48 5 64 13 43 21 -26 9 -5 33 90 104 514 384 498
375 433 248 -22 -42 -36 -81 -32 -85 10 -10 220 159 337 271 108 105 124 104
85 -7 -16 -43 -28 -115 -28 -159 l0 -80 41 106 c48 126 308 410 497 542 l123
87 -51 -102 c-38 -75 -52 -132 -52 -217 l1 -116 64 111 c36 61 88 141 115 177
l50 66 10 -75 c6 -42 21 -80 35 -84 17 -6 21 9 13 51 -16 77 26 167 228 499
395 650 527 1476 306 1915 l-55 107 75 -58 c107 -85 122 -73 57 46 -31 58 -89
205 -128 326 -41 126 -108 281 -157 361 l-86 139 85 127 c217 324 308 782 188
944 -24 33 -47 80 -52 104 -4 24 -44 76 -88 114 -59 52 -75 78 -61 99 36 59
-90 126 -283 151 -80 10 -91 17 -83 51 14 53 -28 50 -217 -19z m-3687 -233
c159 -106 331 -320 330 -413 0 -14 -20 13 -45 60 -108 211 -337 359 -424 272
-36 -35 -202 6 -261 65 -20 20 -30 22 -30 6 0 -18 -7 -18 -28 0 -23 19 -55 -9
-172 -148 -80 -94 -152 -171 -161 -171 -10 0 -49 -28 -88 -62 -145 -127 -45
105 108 251 67 65 79 97 28 77 -23 -9 -29 -5 -19 11 8 12 27 23 42 23 15 0 35
12 44 27 9 14 34 37 56 49 36 20 33 23 -28 23 -88 1 -67 22 42 42 78 15 188 2
288 -33 31 -11 34 -9 13 13 -80 86 134 22 305 -92z m3710 101 c-23 -28 -20
-29 28 -11 62 24 323 26 381 3 33 -13 28 -18 -30 -29 l-69 -14 120 -70 c66
-39 98 -65 70 -58 -47 13 -47 10 19 -58 37 -40 63 -78 56 -84 -6 -7 10 -44 37
-83 50 -74 96 -213 83 -251 -4 -12 -28 36 -54 106 -63 172 -272 386 -398 406
-46 8 -83 23 -83 34 0 11 -25 2 -55 -20 -92 -68 -260 -103 -272 -58 -28 108
-233 -8 -356 -202 -65 -102 -75 -94 -19 15 73 144 255 295 452 379 107 45 131
44 90 -5z m-1390 -140 c44 -7 112 -25 150 -39 39 -15 101 -39 139 -53 68 -26
68 -27 20 -39 -40 -11 -32 -16 49 -29 85 -13 94 -19 65 -40 -29 -22 -22 -28
57 -50 102 -29 104 -36 50 -157 -49 -106 -49 -103 -3 -103 59 0 149 -79 124
-109 -21 -25 40 -54 380 -180 338 -125 873 -718 931 -1031 l13 -70 -53 69
c-29 39 -48 81 -43 95 5 15 3 26 -6 26 -9 0 -68 77 -131 170 -64 94 -122 166
-130 161 -8 -5 -26 23 -40 62 -14 38 -29 66 -34 62 -5 -5 4 -39 19 -77 67
-162 65 -175 -10 -106 -37 34 -89 77 -116 95 -93 62 -85 33 15 -57 185 -167
295 -398 345 -725 33 -218 17 -230 -70 -49 -44 89 -82 160 -84 157 -5 -4 26
-130 62 -253 9 -34 -6 -21 -47 40 -34 50 -62 99 -62 110 0 11 -47 92 -104 180
-57 88 -102 174 -100 190 2 17 -39 61 -92 98 -68 49 -97 84 -100 120 -2 34
-36 81 -98 136 -53 46 -89 89 -82 97 7 7 -11 34 -40 60 -47 42 -49 48 -16 48
50 1 -14 80 -66 82 -25 1 -23 5 6 17 49 19 -89 137 -250 212 l-108 50 90 -9
90 -10 -70 22 c-38 12 -58 26 -44 32 20 7 17 16 -11 36 -40 28 -255 45 -278
23 -8 -8 -41 -13 -75 -12 -61 1 -61 2 -11 17 176 53 169 89 -24 121 -134 23
-224 20 -367 -12 l-60 -14 40 46 40 46 -44 -23 c-51 -27 -66 -29 -66 -7 0 9
47 34 105 55 93 34 99 40 50 45 -104 12 -260 -49 -344 -135 -91 -94 -139 -101
-195 -31 -57 73 -190 143 -323 170 -127 26 -173 14 -81 -21 69 -26 195 -119
181 -133 -6 -6 -22 -3 -36 6 -115 71 -695 5 -646 -74 6 -10 -32 -18 -86 -18
-191 0 -328 -40 -554 -162 -147 -80 -205 -104 -178 -73 23 25 46 59 52 77 6
18 73 57 148 89 75 31 151 67 167 80 17 13 50 30 75 38 48 15 62 51 20 52 -47
1 87 99 136 99 27 0 49 2 49 5 0 3 -18 52 -40 109 l-39 104 109 35 c96 30 104
37 74 60 -44 33 196 39 258 6 22 -12 51 -18 64 -13 13 5 -34 26 -104 48 -70
22 -120 45 -110 50 46 27 182 63 215 58 25 -3 32 3 22 19 -15 25 116 19 251
-11 32 -7 24 1 -20 20 l-70 30 127 -11 c70 -6 150 -20 178 -31 27 -10 66 -14
86 -8 69 22 113 -72 117 -250 5 -231 56 -302 61 -84 0 39 9 61 21 54 37 -23
45 50 11 102 -70 107 206 274 389 236 17 -3 66 -11 110 -18z m-1831 -423 c1
-23 -12 -53 -29 -67 -26 -22 -30 -10 -29 93 0 119 56 95 58 -26z m2501 13
c-12 -93 -15 -98 -17 -34 -2 52 -10 72 -26 62 -24 -15 -11 16 29 67 28 37 29
28 14 -95z m-1892 -392 c42 -16 41 -48 -1 -48 -19 0 -28 -5 -22 -12 6 -6 15
-8 19 -5 13 12 72 -53 63 -68 -13 -21 15 -19 95 7 130 41 131 42 78 60 -36 13
-25 14 40 7 101 -11 270 -89 270 -125 0 -58 126 -142 159 -105 17 19 24 42 16
51 -8 9 -5 11 8 3 13 -7 28 0 34 16 6 16 47 39 90 53 54 16 76 32 69 51 -14
38 143 36 254 -3 109 -38 106 -39 95 21 -17 88 124 132 305 96 l65 -13 -47
-37 -48 -36 102 -1 c109 0 244 -39 328 -95 l50 -33 -48 -11 c-45 -11 -41 -16
45 -61 93 -49 93 -50 39 -61 l-56 -11 66 -35 c66 -35 70 -72 8 -74 -19 0 17
-27 79 -59 99 -52 211 -153 190 -173 -4 -4 -112 15 -240 43 -315 68 -464 66
-690 -10 -98 -33 -184 -60 -190 -60 -21 0 13 70 42 87 34 20 104 167 105 218
0 57 -34 40 -46 -22 -18 -90 -105 -176 -250 -247 -131 -64 -280 -194 -386
-336 l-52 -70 -31 60 c-53 102 -162 198 -372 327 -201 123 -259 180 -299 293
l-21 60 -1 -56 c-2 -64 24 -122 85 -192 42 -47 42 -48 3 -35 -33 11 -31 6 10
-28 l50 -42 -50 12 c-27 7 -68 16 -90 19 -22 4 -95 21 -163 39 -162 44 -322
41 -515 -7 -179 -46 -199 -48 -182 -20 16 26 -2 25 -51 -1 -27 -14 -39 -14
-39 1 0 28 171 135 242 150 82 19 92 50 15 50 l-64 0 57 60 57 60 -58 0 c-54
0 -50 6 59 75 118 75 118 75 60 87 l-58 12 80 36 c81 36 362 78 393 58 9 -6
17 -5 17 2 0 7 -29 23 -65 36 l-65 24 80 12 c113 17 241 20 278 6z m-1561
-498 c-93 -108 -107 -121 -107 -99 0 13 182 209 194 209 5 0 -34 -49 -87 -110z
m313 -30 c-12 -22 -32 -41 -46 -41 -13 -1 -9 -8 10 -15 29 -12 22 -33 -55
-154 -49 -77 -89 -151 -89 -165 0 -14 -10 -25 -22 -25 -13 0 -54 -28 -92 -61
-91 -80 -102 -64 -36 50 44 74 49 98 30 121 -20 24 -10 48 49 129 94 128 306
264 251 161z m880 -200 l50 -39 -70 20 c-123 34 -134 18 -14 -20 128 -41 188
-80 155 -101 -12 -7 39 -25 114 -41 125 -26 130 -28 65 -38 -64 -10 -55 -15
107 -58 359 -96 497 -433 262 -643 -48 -43 -53 -44 -38 -10 142 332 -270 733
-648 631 -112 -30 -106 -34 52 -33 226 2 438 -95 539 -246 143 -213 -78 -562
-253 -399 -42 40 -67 88 -172 335 -60 140 -251 187 -416 104 -60 -31 -70 -32
-49 -7 33 40 171 102 281 126 l85 18 -90 -9 c-149 -15 -225 -45 -327 -130
-148 -122 -273 -108 -273 32 0 77 -129 86 -258 19 -62 -32 -67 -32 -55 -1 7
18 13 46 13 61 0 15 28 59 62 98 68 78 67 80 -16 51 l-56 -20 60 50 c33 27 69
51 80 52 11 1 -2 8 -29 16 -107 29 421 240 669 266 33 4 74 -5 90 -19 17 -14
53 -43 80 -65z m2473 33 c182 -56 413 -193 357 -213 -27 -10 -24 -17 20 -40
57 -31 141 -135 123 -153 -6 -6 34 -70 89 -141 257 -336 354 -901 207 -1216
-26 -56 -27 -50 -16 84 15 175 -2 275 -55 328 -27 27 -43 74 -48 138 -4 53
-18 118 -32 144 -14 25 -22 46 -18 46 3 0 -28 68 -68 150 -151 304 -158 315
-222 326 -33 6 -78 18 -100 26 -22 9 16 -36 84 -100 150 -139 222 -275 235
-442 5 -66 23 -160 40 -208 30 -84 29 -193 -2 -342 -9 -42 -16 -33 -47 60 -51
150 -193 260 -334 260 l-56 -1 80 -71 80 -71 -90 53 c-49 29 -108 62 -131 73
-78 38 -98 97 -34 99 l55 1 -60 27 -60 26 50 20 c28 10 77 27 110 37 33 10 62
32 66 49 7 39 -124 230 -154 223 -12 -3 -22 11 -22 32 0 127 -399 400 -524
358 -14 -5 24 -20 84 -35 99 -23 260 -105 260 -131 0 -5 -36 8 -79 31 -188 95
-364 31 -400 -147 -75 -361 -415 -458 -499 -142 -64 244 182 477 538 507 l150
13 -94 16 c-365 59 -737 -282 -650 -596 27 -97 -52 -12 -106 113 -51 120 -43
205 33 326 l50 80 -61 -64 c-68 -73 -109 -199 -90 -275 10 -42 5 -51 -27 -51
-38 0 -75 -135 -67 -240 2 -16 10 -97 18 -180 l16 -150 17 127 17 128 89 -11
c163 -18 213 -93 195 -294 -9 -106 -21 -155 -32 -137 -14 22 -17 21 -18 -4 0
-16 41 -100 92 -185 51 -85 88 -166 82 -180 -5 -15 6 -25 28 -25 56 0 47 39
-42 189 -108 182 -117 463 -13 429 24 -8 58 -13 76 -12 42 3 82 -90 155 -365
33 -121 66 -237 74 -258 10 -26 7 -34 -7 -25 -12 7 -4 -24 18 -69 224 -463 64
-951 -310 -946 -127 1 -326 47 -273 62 84 25 85 26 62 53 -12 15 -16 33 -8 40
7 7 1 13 -13 13 -14 0 23 25 82 56 209 109 295 352 192 545 -218 410 -1057
273 -1055 -172 1 -133 162 -389 244 -389 11 0 5 -14 -12 -31 -26 -26 -58 -28
-193 -14 -89 10 -165 11 -170 3 -14 -23 49 -63 81 -51 20 8 30 -1 30 -27 0
-57 81 -70 257 -43 188 29 204 18 35 -24 -194 -49 -247 -43 -368 40 -261 180
-296 529 -92 931 55 108 61 145 15 86 -31 -40 -31 -40 -19 0 6 22 29 126 50
230 43 207 82 324 96 286 5 -13 -1 -42 -13 -64 -11 -21 -20 -56 -20 -76 1 -20
19 3 40 51 60 134 137 50 108 -117 -7 -38 -5 -63 4 -53 9 9 18 112 19 230 1
126 13 238 28 273 l26 60 15 -69 c50 -223 44 -367 -19 -466 -89 -139 -135
-236 -150 -315 -11 -58 -10 -64 9 -33 19 31 27 33 41 10 12 -19 17 -8 18 35 0
35 17 84 37 110 21 27 60 93 88 148 l50 100 -29 258 -28 257 50 73 c149 215
143 428 -15 552 -70 55 -32 71 43 18 25 -17 58 -27 73 -21 15 5 48 -13 74 -42
26 -28 36 -45 22 -37 -40 23 -29 -24 15 -68 42 -42 120 -27 120 22 0 113 339
322 598 370 101 18 179 38 173 44 -6 5 31 41 80 80 50 39 86 82 81 96 -25 65
261 54 501 -19z m1134 -630 c48 -146 108 -515 87 -536 -5 -5 -20 66 -33 157
-39 282 -44 303 -65 273 -13 -19 -15 -14 -6 17 7 26 -9 92 -39 164 -56 134
-64 170 -23 117 15 -20 50 -106 79 -192z m-4388 78 c-38 -33 -75 -60 -82 -60
-7 -1 -42 -46 -77 -101 -72 -112 -102 -135 -46 -36 45 81 216 256 249 256 14
0 -6 -27 -44 -59z m832 -50 c36 -27 34 -28 -21 -8 -94 34 -284 -12 -348 -85
-62 -70 -95 -77 -51 -10 70 108 330 171 420 103z m2279 -51 c78 -45 106 -70
88 -81 -20 -13 -20 -22 -1 -46 19 -23 20 -33 1 -44 -14 -9 -19 -7 -11 6 7 11
-1 32 -18 46 -21 18 -24 30 -9 39 38 23 -122 86 -215 85 -47 -1 -81 5 -76 14
6 8 -15 11 -45 5 -50 -10 -52 -8 -25 25 43 51 171 31 311 -49z m-2170 -363 c0
-30 -61 -44 -86 -19 -18 18 -17 28 4 41 32 20 82 6 82 -22z m1856 -4 c5 -21
-6 -33 -31 -33 -53 0 -69 21 -42 54 28 34 65 24 73 -21z m124 -130 c0 -52
-102 -123 -174 -121 l-76 2 85 19 c51 12 99 38 120 68 39 53 45 57 45 32z
m571 -273 c139 -92 235 -279 165 -322 -16 -10 -12 -19 14 -28 35 -12 34 -14
-8 -25 -25 -7 -41 -7 -35 -1 29 28 -45 59 -127 53 -113 -9 -139 -43 -143 -186
l-3 -111 -12 93 c-9 70 -26 105 -67 137 -31 24 -69 70 -86 101 -17 35 -56 66
-94 78 l-65 21 77 -9 c80 -10 153 -58 153 -102 0 -13 15 -36 33 -51 35 -30 35
-36 -2 95 -7 25 -50 60 -107 86 l-94 43 73 -9 c99 -13 112 8 33 52 l-66 37 60
-8 c33 -5 78 -15 100 -23 35 -13 35 -10 -6 26 l-46 41 66 19 c65 19 64 19 -34
23 -81 3 -91 7 -50 20 101 32 165 20 271 -50z m-1561 -623 c39 -31 39 -32 -10
-20 -27 7 -90 14 -140 15 -82 3 -85 4 -30 18 95 24 137 21 180 -13z m-115 -41
c-30 -5 -84 -5 -120 0 -36 4 -11 8 55 8 66 0 95 -4 65 -8z m205 -64 c0 -25
-249 -48 -304 -29 -37 13 -25 19 64 29 178 19 240 19 240 0z m131 -111 c69
-45 58 -51 -51 -30 -49 9 -180 19 -290 21 l-200 3 150 26 c187 32 322 25 391
-20z m153 -235 c-42 -95 -136 -216 -168 -216 -11 0 13 37 54 82 78 87 128 186
133 262 l2 46 9 -44 c5 -25 -9 -83 -30 -130z m225 -573 c-19 -31 -46 -56 -61
-56 -39 0 -35 8 27 63 71 63 74 62 34 -7z m-339 -14 c-33 -15 -91 -27 -130
-27 l-70 0 60 27 c33 15 92 28 130 28 l70 0 -60 -28z m-532 -22 c5 -4 -36 -6
-90 -6 -72 1 -87 6 -58 19 35 14 126 7 148 -13z"/>
<path d="M3551 5708 c-34 -25 -29 -36 12 -31 7 1 18 -12 25 -29 7 -19 3 -25
-11 -16 -75 46 -116 26 -108 -52 7 -74 3 -79 -72 -109 -88 -35 -87 -61 4 -81
47 -11 81 0 155 47 52 33 135 76 184 96 l90 35 -70 15 c-38 9 -81 12 -95 7
-14 -5 -25 3 -25 17 0 17 22 24 65 20 l65 -5 -60 15 c-44 11 -59 25 -56 55 5
48 -48 57 -103 16z"/>
<path d="M6370 4208 c18 -29 44 -89 57 -134 13 -44 36 -85 52 -90 20 -7 23 0
11 28 -8 21 -18 64 -21 95 -5 56 -78 153 -115 153 -10 0 -3 -23 16 -52z"/>
</g>
</svg>
